<svg width="512" height="512" viewBox="0 0 512 512" fill="none" xmlns="http://www.w3.org/2000/svg">
  <rect width="512" height="512" rx="112" fill="#170b08"/>
  <path d="M256 82C331 163 370 227 370 296C370 371 320 430 256 430C192 430 142 371 142 296C142 237 170 192 209 149C212 204 235 235 272 255C264 208 251 158 256 82Z" fill="#F97316"/>
  <path d="M256 206C295 251 314 288 314 327C314 369 288 398 256 398C224 398 198 369 198 327C198 294 214 268 238 242C238 279 251 300 274 316C269 282 259 247 256 206Z" fill="#FFE5C2"/>
</svg>
