<?xml version="1.0" encoding="UTF-8"?>
<svg id="Layer_1" xmlns="http://www.w3.org/2000/svg" version="1.1" viewBox="0 0 841.89 595.28">
  <!-- Generator: Adobe Illustrator 29.4.0, SVG Export Plug-In . SVG Version: 2.1.0 Build 152)  -->
  <defs>
    <style>
      .st0 {
        fill: #f4752c;
      }
    </style>
  </defs>
  <rect class="st0" x="399.11" y="242.21" width=".03" height="110.85"/>
  <path class="st0" d="M399.11,242.21v110.85h.03v-110.85h-.03Z"/>
  <path class="st0" d="M574.99,391.91l-17.78-194.81c-1.62-17.74-16.5-31.32-34.34-31.32h-203.3c-17.78,0-32.63,13.52-34.31,31.23l-18.37,194.81c-1.93,20.2,13.98,37.69,34.31,37.69h239.44c20.29,0,36.17-17.43,34.34-37.6ZM399.14,353.06h-24.15v-110.85h24.15v110.85ZM466.91,317.42c0,9.82-3.48,18.21-10.47,25.17-6.96,6.99-15.35,10.47-25.17,10.47h-18.49v-31.67h18.49c1.12,0,2.05-.4,2.83-1.15.75-.78,1.15-1.71,1.15-2.83s-.4-2.02-1.15-2.8c-.78-.78-1.71-1.15-2.83-1.15h-18.49v-31.67h18.49c1.12,0,2.05-.37,2.83-1.15.75-.78,1.15-1.71,1.15-2.8s-.4-2.05-1.15-2.83c-.78-.75-1.71-1.15-2.83-1.15h-18.49v-31.67h18.49c9.82,0,18.21,3.48,25.17,10.47,6.99,6.96,10.47,15.35,10.47,25.17,0,7.36-1.99,13.98-5.94,19.8,3.95,5.78,5.94,12.4,5.94,19.76Z"/>
</svg>